<svg width="512" height="512" viewBox="3 1.5 19 20" fill="none" xmlns="http://www.w3.org/2000/svg">
  <path d="M19 2 Q19 4.5 21.5 4.5 Q19 4.5 19 7 Q19 4.5 16.5 4.5 Q19 4.5 19 2 Z" fill="#2563EB" />
  <path d="M5 4 H12.5 V9.5 H18 V20 H5 V4 Z" fill="none" stroke="#2563EB" stroke-width="2" />
  <path d="M12.5 4 L18 9.5 H12.5 V4 Z" fill="#2563EB" />
  <path fill-rule="evenodd" clip-rule="evenodd" d="M8 8H11.5C13.433 8 15 9.567 15 11.5C15 13.433 13.433 15 11.5 15H10L8 13V8ZM9.5 9.5V12L11 13.5H11.5C12.6046 13.5 13.5 12.6046 13.5 11.5C13.5 10.3954 12.6046 9.5 11.5 9.5H9.5Z" fill="#2563EB" />
</svg>
